<svg width="33" height="33" viewBox="0 0 33 33" fill="none" xmlns="http://www.w3.org/2000/svg">
<path d="M6.63667 13.9571C9.27667 19.0275 13.53 23.1662 18.7183 25.7642L22.7517 21.8225C23.2467 21.3388 23.98 21.1775 24.6217 21.3925C26.675 22.0554 28.8933 22.4137 31.1667 22.4137C32.175 22.4137 33 23.22 33 24.2054V30.4583C33 31.4437 32.175 32.25 31.1667 32.25C13.9517 32.25 0 18.6154 0 1.79167C0 0.80625 0.825 0 1.83333 0H8.25C9.25833 0 10.0833 0.80625 10.0833 1.79167C10.0833 4.03125 10.45 6.18125 11.1283 8.18792C11.33 8.815 11.1833 9.51375 10.67 10.0154L6.63667 13.9571Z" fill="black" fill-opacity="0.87"/>
</svg>
