<svg width="200" height="200" viewBox="0 0 200 200" fill="none" xmlns="http://www.w3.org/2000/svg">
<path fill-rule="evenodd" clip-rule="evenodd" d="M200 150L150 200L100 150L50 200L0 150L50 100L0 50L50 0L100 50L150 0L200 50L150 100L200 150ZM150 100L100 50L50 100L100 150L150 100Z" fill="#2B1C05"/>
<g clip-path="url(#clip0_128_493)">
<path fill-rule="evenodd" clip-rule="evenodd" d="M200 150L150 200L100 150L50 200L0 150L50 100L0 50L50 0L100 50L150 0L200 50L150 100L200 150ZM150 100L100 50L50 100L100 150L150 100Z" fill="#FFFBF4"/>
</g>
<defs>
<clipPath id="clip0_128_493">
<rect width="200" height="100" fill="white" transform="matrix(1 0 0 -1 0 200)"/>
</clipPath>
</defs>
</svg>
