<svg width="89" height="100" viewBox="0 0 89 100" fill="none" xmlns="http://www.w3.org/2000/svg">
<path d="M87.5051 46.2405C88.1086 45.461 88.3561 44.1674 87.5188 43.1282L87.3371 42.9241L46.1643 1.04615C44.7928 -0.348498 42.5445 -0.348647 41.1731 1.04615L0.717985 42.1946C-0.365896 43.2971 -0.0634878 44.7442 0.585172 45.5588C1.23022 46.3686 2.54983 46.9815 3.86642 46.2327L5.23263 45.4641C18.1527 38.2732 29.1296 34.4744 40.1321 33.9788L40.1321 96.2512C40.1321 97.9081 41.4752 99.2512 43.1321 99.2512C44.7887 99.251 46.1321 97.9079 46.1321 96.2512L46.1321 34.0344C57.5608 34.7576 69.5597 38.9918 84.2756 46.9495C85.5718 47.6504 86.865 47.0669 87.5051 46.2405Z" fill="#FFAE00"/>
</svg>
